<?xml version="1.0" encoding="UTF-8"?>
<svg width="350" height="316.47" version="1.1" viewBox="0 0 349.99754 316.47173" xmlns="http://www.w3.org/2000/svg" xmlns:cc="http://creativecommons.org/ns#" xmlns:dc="http://purl.org/dc/elements/1.1/" xmlns:rdf="http://www.w3.org/1999/02/22-rdf-syntax-ns#"><metadata><rdf:RDF><cc:Work rdf:about=""><dc:format>image/svg+xml</dc:format><dc:type rdf:resource="http://purl.org/dc/dcmitype/StillImage"/><dc:title/></cc:Work></rdf:RDF></metadata><path d="m350 30.638c-1.2062 16.571-7.7846 33.329-23.315 49.27l-2.3919 2.3925-136 140.59c-29.532 28.75-53.441 52.919-73.773 69.194-21.265 15.715-34.673 24.392-43.015 24.392-9.0489 0-19.735-4.0592-32.809-12.216-13.517-9.0859-21.451-16.608-25.248-25.25-4.0224-8.3789-6.3299-22.531-9.1984-45.917-3.0184-24.169-4.2461-48.786-4.2461-76.12 0-15.082 6.2951-28.563 18.919-41.187 12.513-12.774 26.554-18.957 41.82-18.957 14.116-0.01424 23.166 13.11 25.959 39.363 0 2.3479 0.46493 5.3617 0.6394 6.8152 1.8134 19.7 5.1019 34.336 8.1536 42.306 2.28 7.0387 7.2627 11.992 12.587 11.992 2.1216 0 6.2559-2.3506 12.254-7.039 5.6223-4.88 13.218-11.173 21.598-19.329l139.65-136.15c10.984-11.878 22.232-20.109 31.467-25.956 9.162-6.3668 17.056-8.8255 23.536-8.8255 4.358-0.0142 8.2685 1.7792 10.354 5.4001 1.8702 3.0154 3.0544 9.6444 3.0544 18.135v7.1135" fill="#007f00" stroke-width="3.7241"/></svg>
